<?xml version="1.0" encoding="UTF-8"?>
<svg width="193px" height="193px" viewBox="0 0 193 193" version="1.1" xmlns="http://www.w3.org/2000/svg" xmlns:xlink="http://www.w3.org/1999/xlink">
    <title>rrf</title>
    <g id="page-1" stroke="none" stroke-width="1" fill="none" fill-rule="evenodd">
        <g id="a" transform="translate(-402.000000, -27.000000)">
            <g id="g" transform="translate(402.000000, 27.000000)">
                <rect id="r" x="0" y="0" width="193" height="193"></rect>
                <polygon id="p" stroke="#000000" stroke-width="6" points="64 38 119 38 91.5 86"></polygon>
                <polygon id="p-2" stroke="#000000" stroke-width="6" points="82 49 135 49 110.957378 96"></polygon>
                <polygon id="p-3" stroke="#000000" stroke-width="6" points="64 59 117 59 91.9140865 105"></polygon>
                <path d="M69.9,149 L69.9,138.56 L76.632,149 L85.416,149 L76.884,137.876 C78.828,137.42 80.298,136.55 81.294,135.266 C82.29,133.982 82.788,132.308 82.788,130.244 C82.788,129.092 82.602,128.012 82.23,127.004 C81.858,125.996 81.306,125.108 80.574,124.34 C79.842,123.572 78.912,122.966 77.784,122.522 C76.656,122.078 75.336,121.856 73.824,121.856 L73.824,121.856 L62.844,121.856 L62.844,149 L69.9,149 Z M71.232,133.988 L69.9,133.988 L69.9,127.292 L71.232,127.292 C72.624,127.292 73.692,127.58 74.436,128.156 C75.18,128.732 75.552,129.56 75.552,130.64 C75.552,131.72 75.18,132.548 74.436,133.124 C73.692,133.7 72.624,133.988 71.232,133.988 L71.232,133.988 Z M95.424,149 L95.424,138.56 L102.156,149 L110.94,149 L102.408,137.876 C104.352,137.42 105.822,136.55 106.818,135.266 C107.814,133.982 108.312,132.308 108.312,130.244 C108.312,129.092 108.126,128.012 107.754,127.004 C107.382,125.996 106.83,125.108 106.098,124.34 C105.366,123.572 104.436,122.966 103.308,122.522 C102.18,122.078 100.86,121.856 99.348,121.856 L99.348,121.856 L88.368,121.856 L88.368,149 L95.424,149 Z M96.756,133.988 L95.424,133.988 L95.424,127.292 L96.756,127.292 C98.148,127.292 99.216,127.58 99.96,128.156 C100.704,128.732 101.076,129.56 101.076,130.64 C101.076,131.72 100.704,132.548 99.96,133.124 C99.216,133.7 98.148,133.988 96.756,133.988 L96.756,133.988 Z M120.948,149 L120.948,138.344 L128.688,138.344 L128.688,132.368 L120.948,132.368 L120.948,127.832 L129.444,127.832 L129.444,121.856 L113.892,121.856 L113.892,149 L120.948,149 Z" id="RRF" fill="#000000" fill-rule="nonzero"></path>
            </g>
        </g>
    </g>
</svg>